<?xml version="1.0" encoding="utf-8"?>
<!-- Generator: Adobe Illustrator 25.2.3, SVG Export Plug-In . SVG Version: 6.00 Build 0)  -->
<svg version="1.1" id="Lager_1" xmlns="http://www.w3.org/2000/svg" xmlns:xlink="http://www.w3.org/1999/xlink" x="0px" y="0px"
	 viewBox="0 0 800 1620" style="enable-background:new 0 0 800 1620;" xml:space="preserve">
<style type="text/css">
	.st0{fill:none;stroke:#404040;stroke-width:4;stroke-linecap:round;stroke-linejoin:round;stroke-miterlimit:10;}
	.st1{fill:#FFFFFF;stroke:#404040;stroke-width:4;stroke-linecap:round;stroke-linejoin:round;stroke-miterlimit:10;}
	.st2{fill:#59AFE1;stroke:#404040;stroke-width:4;stroke-linejoin:round;stroke-miterlimit:10;}
	.st3{fill:none;stroke:#CCCCCC;stroke-linecap:round;stroke-linejoin:round;stroke-miterlimit:10;}
	.st4{fill:#B3E3FF;stroke:#404040;stroke-width:4;stroke-linejoin:round;stroke-miterlimit:10;}
	.st5{fill:#404040;}
	.st6{fill:#414141;}
</style>
<path class="st0" d="M575.5,1373.7v23.5 M564.7,1382.4l10.8-10.9l10.9,10.9 M595.4,1331.3h-83h41.2 M398.7,1372.3
	c0,22.6-18.4,41-41,41H155.5 M398.7,1372.3c0-22.6,18.4-41,41-41h30.7"/>
<circle class="st1" cx="301.1" cy="1413.3" r="21"/>
<circle class="st1" cx="217.8" cy="1413.3" r="21"/>
<circle class="st2" cx="574.6" cy="1331.3" r="21"/>
<ellipse transform="matrix(0.1602 -0.9871 0.9871 0.1602 -901.4231 1603.1042)" class="st1" cx="491.4" cy="1331.3" rx="21" ry="21"/>
<circle class="st1" cx="134.6" cy="1413.3" r="21"/>
<path class="st0" d="M574.6,1288.7v-23.5 M585.5,1280l-10.9,10.8l-10.9-10.8"/>
<path class="st0" d="M416.8,294H292.4"/>
<circle class="st2" cx="437.8" cy="294" r="21"/>
<circle class="st1" cx="354.6" cy="294" r="21"/>
<circle class="st1" cx="271.4" cy="294" r="21"/>
<path class="st0" d="M437.8,249.7v-23.5 M448.7,241l-10.9,10.9L427,241 M437.8,338v23.5 M427,346.7l10.8-10.8l10.9,10.8"/>
<path class="st3" d="M113.4,533.8h541.5"/>
<path class="st0" d="M301.1,896.4v23.5 M290.2,905.1l10.9-10.8l10.8,10.8 M595.4,772.1h-83h41.2 M398.7,813.1c0,22.6-18.4,41-41,41
	H155.5 M398.7,813.1c0-22.6,18.4-41,41-41h30.7"/>
<path class="st1" d="M593.6,793.1h-38c-1.1,0-2-0.9-2-2v-38c0-1.1,0.9-2,2-2h38c1.1,0,2,0.9,2,2v38
	C595.6,792.2,594.7,793.1,593.6,793.1z M510.4,793.1h-38c-1.1,0-2-0.9-2-2v-38c0-1.1,0.9-2,2-2h38c1.1,0,2,0.9,2,2v38
	C512.4,792.2,511.5,793.1,510.4,793.1z"/>
<circle class="st2" cx="301.1" cy="854.1" r="21"/>
<circle class="st1" cx="217.8" cy="854.1" r="21"/>
<circle class="st1" cx="134.6" cy="854.1" r="21"/>
<path class="st0" d="M574.6,729.4v-23.5 M585.5,720.7l-10.9,10.9l-10.9-10.9"/>
<path class="st3" d="M113.4,1092.8h541.5"/>
<g>
	<path class="st4" d="M494.5,636.3h160.2v50H494.5V636.3z"/>
	<g>
		<path class="st5" d="M531.4,656.4c2.7,0,5.3,2,5.3,5.5c0,3.6-2.7,5.5-5.3,5.5c-2.7,0-5.3-2-5.3-5.5
			C526,658.4,528.7,656.4,531.4,656.4z M531.4,666.2c2,0,3.8-1.4,3.8-4.2s-1.9-4.2-3.8-4.2c-2,0-3.8,1.4-3.8,4.2
			S529.4,666.2,531.4,666.2z M543.3,661.5h-0.6c-1.2,0-2,0.6-2,2.2v3.6h-1.4v-7.2h1.4v1.3c0.5-1.1,1.4-1.4,2.2-1.4h0.5L543.3,661.5
			L543.3,661.5L543.3,661.5z M546.3,656.3c0.6,0,1,0.4,1,1s-0.5,1-1,1c-0.6,0-1-0.5-1-1S545.7,656.3,546.3,656.3z M545.6,667.3v-7.2
			h1.4v7.2H545.6z M551,667.4c0.1,1,0.9,1.8,2,1.8c1.5,0,2.2-0.8,2.2-2.3v-1c-0.3,0.7-1.1,1.2-2.2,1.2c-1.9,0-3.3-1.5-3.3-3.5
			c0-1.9,1.3-3.5,3.3-3.5c1.1,0,1.9,0.4,2.2,1.1v-1h1.4v6.7c0,1.8-0.9,3.6-3.6,3.6c-1.8,0-3.2-1.1-3.3-2.7L551,667.4z M555.2,663.5
			c0-1.4-0.8-2.3-2.1-2.3c-1.2,0-2.1,0.9-2.1,2.3s0.8,2.3,2.1,2.3S555.2,664.9,555.2,663.5z M560.2,656.3c0.6,0,1,0.4,1,1
			s-0.5,1-1,1c-0.6,0-1-0.5-1-1S559.7,656.3,560.2,656.3z M559.6,667.3v-7.2h1.4v7.2H559.6z M565.5,667.3h-1.4v-7.2h1.4v1
			c0.5-0.9,1.4-1.2,2.2-1.2c1.7,0,2.6,1.2,2.6,2.9v4.6h-1.4v-4.3c0-1-0.4-1.8-1.7-1.8c-1.1,0-1.7,0.9-1.7,2V667.3z M577.9,667.3
			h-1.4l5.1-10.6h1.4L577.9,667.3z"/>
		<g>
			<path class="st6" d="M590.6,667.2v-10h2l2.4,7.1c0.2,0.7,0.4,1.2,0.5,1.5c0.1-0.4,0.3-0.9,0.5-1.6l2.4-7h1.8v10h-1.3v-8.4
				l-2.9,8.4h-1.2l-2.9-8.5v8.5H590.6z"/>
			<path class="st6" d="M607.6,666.3c-0.5,0.4-0.9,0.7-1.3,0.8c-0.4,0.2-0.9,0.2-1.4,0.2c-0.8,0-1.4-0.2-1.8-0.6
				c-0.4-0.4-0.6-0.9-0.6-1.5c0-0.4,0.1-0.7,0.2-1c0.2-0.3,0.4-0.5,0.6-0.7c0.3-0.2,0.6-0.3,0.9-0.4c0.2-0.1,0.6-0.1,1.1-0.2
				c1-0.1,1.7-0.3,2.2-0.4c0-0.2,0-0.3,0-0.3c0-0.5-0.1-0.9-0.3-1.1c-0.3-0.3-0.8-0.4-1.4-0.4s-1,0.1-1.3,0.3s-0.5,0.6-0.6,1.1
				l-1.2-0.2c0.1-0.5,0.3-0.9,0.5-1.2c0.3-0.3,0.6-0.6,1.1-0.7c0.5-0.2,1-0.3,1.6-0.3c0.6,0,1.1,0.1,1.5,0.2
				c0.4,0.1,0.7,0.3,0.9,0.6c0.2,0.2,0.3,0.5,0.4,0.8c0,0.2,0.1,0.6,0.1,1.1v1.6c0,1.1,0,1.9,0.1,2.2c0.1,0.3,0.2,0.6,0.3,0.9h-1.3
				C607.7,667,607.6,666.7,607.6,666.3z M607.5,663.6c-0.4,0.2-1.1,0.3-2,0.5c-0.5,0.1-0.9,0.2-1.1,0.2s-0.4,0.2-0.5,0.4
				s-0.2,0.4-0.2,0.6c0,0.3,0.1,0.6,0.4,0.8c0.2,0.2,0.6,0.3,1.1,0.3s0.9-0.1,1.3-0.3s0.6-0.5,0.8-0.9c0.1-0.3,0.2-0.7,0.2-1.2
				V663.6L607.5,663.6z"/>
			<path class="st6" d="M611.3,658.6v-1.4h1.2v1.4H611.3z M611.3,667.2v-7.3h1.2v7.3H611.3z"/>
			<path class="st6" d="M615.1,667.2v-7.3h1.1v1c0.5-0.8,1.3-1.2,2.3-1.2c0.4,0,0.8,0.1,1.2,0.2c0.4,0.2,0.6,0.4,0.8,0.6
				c0.2,0.2,0.3,0.6,0.4,0.9c0,0.2,0.1,0.6,0.1,1.2v4.5h-1.2v-4.4c0-0.5,0-0.9-0.1-1.1s-0.3-0.4-0.5-0.6c-0.2-0.1-0.5-0.2-0.9-0.2
				c-0.5,0-1,0.2-1.4,0.5s-0.6,1-0.6,1.9v4H615.1L615.1,667.2z"/>
		</g>
	</g>
</g>
<g>
	<path class="st4" d="M357.7,156.5h160.2v50H357.7V156.5z"/>
	<g>
		<path class="st5" d="M394.6,176.6c2.7,0,5.3,2,5.3,5.5c0,3.6-2.7,5.5-5.3,5.5c-2.7,0-5.3-2-5.3-5.5
			C389.2,178.6,391.9,176.6,394.6,176.6z M394.6,186.4c2,0,3.8-1.4,3.8-4.2c0-2.8-1.9-4.2-3.8-4.2c-2,0-3.8,1.4-3.8,4.2
			C390.8,185,392.6,186.4,394.6,186.4z M406.5,181.7h-0.6c-1.2,0-2,0.6-2,2.2v3.6h-1.4v-7.2h1.4v1.3c0.5-1.1,1.4-1.4,2.2-1.4h0.5
			v1.5H406.5L406.5,181.7z M409.5,176.5c0.6,0,1,0.4,1,1s-0.5,1-1,1c-0.6,0-1-0.5-1-1S408.9,176.5,409.5,176.5z M408.8,187.5v-7.2
			h1.4v7.2H408.8z M414.2,187.6c0.1,1,0.9,1.8,2,1.8c1.5,0,2.2-0.8,2.2-2.3v-1c-0.3,0.7-1.1,1.2-2.2,1.2c-1.9,0-3.3-1.5-3.3-3.5
			c0-1.9,1.3-3.5,3.3-3.5c1.1,0,1.9,0.4,2.2,1.1v-1h1.4v6.7c0,1.8-0.9,3.6-3.6,3.6c-1.8,0-3.2-1.1-3.3-2.7L414.2,187.6z
			 M418.4,183.7c0-1.4-0.8-2.3-2.1-2.3c-1.2,0-2.1,0.9-2.1,2.3c0,1.4,0.8,2.3,2.1,2.3S418.4,185.1,418.4,183.7z M423.4,176.5
			c0.6,0,1,0.4,1,1s-0.5,1-1,1c-0.6,0-1-0.5-1-1S422.9,176.5,423.4,176.5z M422.8,187.5v-7.2h1.4v7.2H422.8z M428.7,187.5h-1.4v-7.2
			h1.4v1c0.5-0.9,1.4-1.2,2.2-1.2c1.7,0,2.6,1.2,2.6,2.9v4.6h-1.4v-4.3c0-1-0.4-1.8-1.7-1.8c-1.1,0-1.7,0.9-1.7,2V187.5z
			 M441.1,187.5h-1.4l5.1-10.6h1.4L441.1,187.5z"/>
		<g>
			<path class="st6" d="M453.8,187.4v-10h2l2.4,7.1c0.2,0.7,0.4,1.2,0.5,1.5c0.1-0.4,0.3-0.9,0.5-1.6l2.4-7h1.8v10h-1.3V179
				l-2.9,8.4H458l-2.9-8.5v8.5H453.8z"/>
			<path class="st6" d="M470.8,186.5c-0.5,0.4-0.9,0.7-1.3,0.8c-0.4,0.2-0.9,0.2-1.4,0.2c-0.8,0-1.4-0.2-1.8-0.6
				c-0.4-0.4-0.6-0.9-0.6-1.5c0-0.4,0.1-0.7,0.2-1c0.2-0.3,0.4-0.5,0.6-0.7c0.3-0.2,0.6-0.3,0.9-0.4c0.2-0.1,0.6-0.1,1.1-0.2
				c1-0.1,1.7-0.3,2.2-0.4c0-0.2,0-0.3,0-0.3c0-0.5-0.1-0.9-0.3-1.1c-0.3-0.3-0.8-0.4-1.4-0.4s-1,0.1-1.3,0.3
				c-0.3,0.2-0.5,0.6-0.6,1.1l-1.2-0.2c0.1-0.5,0.3-0.9,0.5-1.2c0.3-0.3,0.6-0.6,1.1-0.7c0.5-0.2,1-0.3,1.6-0.3s1.1,0.1,1.5,0.2
				s0.7,0.3,0.9,0.6c0.2,0.2,0.3,0.5,0.4,0.8c0,0.2,0.1,0.6,0.1,1.1v1.6c0,1.1,0,1.9,0.1,2.2c0.1,0.3,0.2,0.6,0.3,0.9h-1.3
				C470.9,187.2,470.8,186.9,470.8,186.5z M470.7,183.8c-0.4,0.2-1.1,0.3-2,0.5c-0.5,0.1-0.9,0.2-1.1,0.2s-0.4,0.2-0.5,0.4
				c-0.1,0.2-0.2,0.4-0.2,0.6c0,0.3,0.1,0.6,0.4,0.8c0.2,0.2,0.6,0.3,1.1,0.3s0.9-0.1,1.3-0.3s0.6-0.5,0.8-0.9
				c0.1-0.3,0.2-0.7,0.2-1.2L470.7,183.8L470.7,183.8z"/>
			<path class="st6" d="M474.5,178.8v-1.4h1.2v1.4H474.5z M474.5,187.4v-7.3h1.2v7.3H474.5z"/>
			<path class="st6" d="M478.3,187.4v-7.3h1.1v1c0.5-0.8,1.3-1.2,2.3-1.2c0.4,0,0.8,0.1,1.2,0.2c0.4,0.2,0.6,0.4,0.8,0.6
				s0.3,0.6,0.4,0.9c0,0.2,0.1,0.6,0.1,1.2v4.5H483v-4.4c0-0.5,0-0.9-0.1-1.1c-0.1-0.2-0.3-0.4-0.5-0.6c-0.2-0.1-0.5-0.2-0.9-0.2
				c-0.5,0-1,0.2-1.4,0.5s-0.6,1-0.6,1.9v4H478.3L478.3,187.4z"/>
		</g>
	</g>
</g>
<g>
	<path class="st4" d="M494.5,1195.5h160.2v50H494.5V1195.5z"/>
	<g>
		<path class="st5" d="M531.4,1215.6c2.7,0,5.3,2,5.3,5.5c0,3.6-2.7,5.5-5.3,5.5c-2.7,0-5.3-2-5.3-5.5
			C526,1217.6,528.7,1215.6,531.4,1215.6z M531.4,1225.4c2,0,3.8-1.4,3.8-4.2c0-2.8-1.9-4.2-3.8-4.2c-2,0-3.8,1.4-3.8,4.2
			C527.6,1224,529.4,1225.4,531.4,1225.4z M543.3,1220.7h-0.6c-1.2,0-2,0.6-2,2.2v3.6h-1.4v-7.2h1.4v1.3c0.5-1.1,1.4-1.4,2.2-1.4
			h0.5L543.3,1220.7L543.3,1220.7L543.3,1220.7z M546.3,1215.5c0.6,0,1,0.4,1,1s-0.5,1-1,1c-0.6,0-1-0.5-1-1
			S545.7,1215.5,546.3,1215.5z M545.6,1226.5v-7.2h1.4v7.2H545.6z M551,1226.6c0.1,1,0.9,1.8,2,1.8c1.5,0,2.2-0.8,2.2-2.3v-1
			c-0.3,0.7-1.1,1.2-2.2,1.2c-1.9,0-3.3-1.5-3.3-3.5c0-1.9,1.3-3.5,3.3-3.5c1.1,0,1.9,0.4,2.2,1.1v-1h1.4v6.7c0,1.8-0.9,3.6-3.6,3.6
			c-1.8,0-3.2-1.1-3.3-2.7L551,1226.6z M555.2,1222.7c0-1.4-0.8-2.3-2.1-2.3c-1.2,0-2.1,0.9-2.1,2.3c0,1.4,0.8,2.3,2.1,2.3
			S555.2,1224.1,555.2,1222.7z M560.2,1215.5c0.6,0,1,0.4,1,1s-0.5,1-1,1c-0.6,0-1-0.5-1-1S559.7,1215.5,560.2,1215.5z
			 M559.6,1226.5v-7.2h1.4v7.2H559.6z M565.5,1226.5h-1.4v-7.2h1.4v1c0.5-0.9,1.4-1.2,2.2-1.2c1.7,0,2.6,1.2,2.6,2.9v4.6h-1.4v-4.3
			c0-1-0.4-1.8-1.7-1.8c-1.1,0-1.7,0.9-1.7,2V1226.5z M577.9,1226.5h-1.4l5.1-10.6h1.4L577.9,1226.5z"/>
		<g>
			<path class="st6" d="M590.6,1226.4v-10h2l2.4,7.1c0.2,0.7,0.4,1.2,0.5,1.5c0.1-0.4,0.3-0.9,0.5-1.6l2.4-7h1.8v10h-1.3v-8.4
				l-2.9,8.4h-1.2l-2.9-8.5v8.5H590.6z"/>
			<path class="st6" d="M607.6,1225.5c-0.5,0.4-0.9,0.7-1.3,0.8c-0.4,0.2-0.9,0.2-1.4,0.2c-0.8,0-1.4-0.2-1.8-0.6
				c-0.4-0.4-0.6-0.9-0.6-1.5c0-0.4,0.1-0.7,0.2-1c0.2-0.3,0.4-0.5,0.6-0.7c0.3-0.2,0.6-0.3,0.9-0.4c0.2-0.1,0.6-0.1,1.1-0.2
				c1-0.1,1.7-0.3,2.2-0.4c0-0.2,0-0.3,0-0.3c0-0.5-0.1-0.9-0.3-1.1c-0.3-0.3-0.8-0.4-1.4-0.4s-1,0.1-1.3,0.3
				c-0.3,0.2-0.5,0.6-0.6,1.1l-1.2-0.2c0.1-0.5,0.3-0.9,0.5-1.2c0.3-0.3,0.6-0.6,1.1-0.7c0.5-0.2,1-0.3,1.6-0.3
				c0.6,0,1.1,0.1,1.5,0.2c0.4,0.1,0.7,0.3,0.9,0.6c0.2,0.2,0.3,0.5,0.4,0.8c0,0.2,0.1,0.6,0.1,1.1v1.6c0,1.1,0,1.9,0.1,2.2
				c0.1,0.3,0.2,0.6,0.3,0.9h-1.3C607.7,1226.2,607.6,1225.9,607.6,1225.5z M607.5,1222.8c-0.4,0.2-1.1,0.3-2,0.5
				c-0.5,0.1-0.9,0.2-1.1,0.2s-0.4,0.2-0.5,0.4c-0.1,0.2-0.2,0.4-0.2,0.6c0,0.3,0.1,0.6,0.4,0.8c0.2,0.2,0.6,0.3,1.1,0.3
				s0.9-0.1,1.3-0.3c0.4-0.2,0.6-0.5,0.8-0.9c0.1-0.3,0.2-0.7,0.2-1.2V1222.8L607.5,1222.8z"/>
			<path class="st6" d="M611.3,1217.8v-1.4h1.2v1.4H611.3z M611.3,1226.4v-7.3h1.2v7.3H611.3z"/>
			<path class="st6" d="M615.1,1226.4v-7.3h1.1v1c0.5-0.8,1.3-1.2,2.3-1.2c0.4,0,0.8,0.1,1.2,0.2c0.4,0.2,0.6,0.4,0.8,0.6
				c0.2,0.2,0.3,0.6,0.4,0.9c0,0.2,0.1,0.6,0.1,1.2v4.5h-1.2v-4.4c0-0.5,0-0.9-0.1-1.1c-0.1-0.2-0.3-0.4-0.5-0.6
				c-0.2-0.1-0.5-0.2-0.9-0.2c-0.5,0-1,0.2-1.4,0.5s-0.6,1-0.6,1.9v4H615.1L615.1,1226.4z"/>
		</g>
	</g>
</g>
<g>
	<path class="st4" d="M389.4,381.5h96.2v50h-96.2V381.5z"/>
	<g>
		<g>
			<path class="st6" d="M422.2,412.6v-10h2l2.4,7.1c0.2,0.7,0.4,1.2,0.5,1.5c0.1-0.4,0.3-0.9,0.5-1.6l2.4-7h1.8v10h-1.3v-8.4
				l-2.9,8.4h-1.2l-2.9-8.5v8.5H422.2z"/>
			<path class="st6" d="M439.2,411.7c-0.5,0.4-0.9,0.7-1.3,0.8c-0.4,0.2-0.9,0.2-1.4,0.2c-0.8,0-1.4-0.2-1.8-0.6s-0.6-0.9-0.6-1.5
				c0-0.4,0.1-0.7,0.2-1c0.2-0.3,0.4-0.5,0.6-0.7c0.3-0.2,0.6-0.3,0.9-0.4c0.2-0.1,0.6-0.1,1.1-0.2c1-0.1,1.7-0.3,2.2-0.4
				c0-0.2,0-0.3,0-0.3c0-0.5-0.1-0.9-0.3-1.1c-0.3-0.3-0.8-0.4-1.4-0.4c-0.6,0-1,0.1-1.3,0.3c-0.3,0.2-0.5,0.6-0.6,1.1l-1.2-0.2
				c0.1-0.5,0.3-0.9,0.5-1.2c0.3-0.3,0.6-0.6,1.1-0.7c0.5-0.2,1-0.3,1.6-0.3s1.1,0.1,1.5,0.2c0.4,0.1,0.7,0.3,0.9,0.6
				c0.2,0.2,0.3,0.5,0.4,0.8c0,0.2,0.1,0.6,0.1,1.1v1.6c0,1.1,0,1.9,0.1,2.2c0.1,0.3,0.2,0.6,0.3,0.9h-1.3
				C439.3,412.4,439.2,412.1,439.2,411.7z M439.1,409c-0.4,0.2-1.1,0.3-2,0.5c-0.5,0.1-0.9,0.2-1.1,0.2s-0.4,0.2-0.5,0.4
				c-0.1,0.2-0.2,0.4-0.2,0.6c0,0.3,0.1,0.6,0.4,0.8c0.2,0.2,0.6,0.3,1.1,0.3s0.9-0.1,1.3-0.3c0.4-0.2,0.6-0.5,0.8-0.9
				c0.1-0.3,0.2-0.7,0.2-1.2V409L439.1,409z"/>
			<path class="st6" d="M442.9,404v-1.4h1.2v1.4H442.9z M442.9,412.6v-7.3h1.2v7.3H442.9z"/>
			<path class="st6" d="M446.8,412.6v-7.3h1.1v1c0.5-0.8,1.3-1.2,2.3-1.2c0.4,0,0.8,0.1,1.2,0.2c0.4,0.2,0.6,0.4,0.8,0.6
				c0.2,0.2,0.3,0.6,0.4,0.9c0,0.2,0.1,0.6,0.1,1.2v4.5h-1.2v-4.4c0-0.5,0-0.9-0.1-1.1s-0.3-0.4-0.5-0.6c-0.2-0.1-0.5-0.2-0.9-0.2
				c-0.5,0-1,0.2-1.4,0.5c-0.4,0.3-0.6,1-0.6,1.9v4L446.8,412.6L446.8,412.6z"/>
		</g>
	</g>
</g>
<g>
	<path class="st4" d="M253,939.9h96.2v50H253V939.9z"/>
	<g>
		<g>
			<path class="st6" d="M285.9,971v-10h2l2.4,7.1c0.2,0.7,0.4,1.2,0.5,1.5c0.1-0.4,0.3-0.9,0.5-1.6l2.4-7h1.8v10h-1.3v-8.4l-2.9,8.4
				h-1.2l-2.9-8.5v8.5H285.9z"/>
			<path class="st6" d="M302.9,970.1c-0.5,0.4-0.9,0.7-1.3,0.8c-0.4,0.2-0.9,0.2-1.4,0.2c-0.8,0-1.4-0.2-1.8-0.6
				c-0.4-0.4-0.6-0.9-0.6-1.5c0-0.4,0.1-0.7,0.2-1c0.2-0.3,0.4-0.5,0.6-0.7c0.3-0.2,0.6-0.3,0.9-0.4c0.2-0.1,0.6-0.1,1.1-0.2
				c1-0.1,1.7-0.3,2.2-0.4c0-0.2,0-0.3,0-0.3c0-0.5-0.1-0.9-0.3-1.1c-0.3-0.3-0.8-0.4-1.4-0.4c-0.6,0-1,0.1-1.3,0.3
				c-0.3,0.2-0.5,0.6-0.6,1.1l-1.2-0.2c0.1-0.5,0.3-0.9,0.5-1.2c0.3-0.3,0.6-0.6,1.1-0.7c0.5-0.2,1-0.3,1.6-0.3s1.1,0.1,1.5,0.2
				s0.7,0.3,0.9,0.6c0.2,0.2,0.3,0.5,0.4,0.8c0,0.2,0.1,0.6,0.1,1.1v1.6c0,1.1,0,1.9,0.1,2.2s0.2,0.6,0.3,0.9h-1.3
				C303,970.8,302.9,970.5,302.9,970.1z M302.8,967.4c-0.4,0.2-1.1,0.3-2,0.5c-0.5,0.1-0.9,0.2-1.1,0.2s-0.4,0.2-0.5,0.4
				c-0.1,0.2-0.2,0.4-0.2,0.6c0,0.3,0.1,0.6,0.4,0.8c0.2,0.2,0.6,0.3,1.1,0.3s0.9-0.1,1.3-0.3c0.4-0.2,0.6-0.5,0.8-0.9
				c0.1-0.3,0.2-0.7,0.2-1.2V967.4L302.8,967.4z"/>
			<path class="st6" d="M306.6,962.4V961h1.2v1.4H306.6z M306.6,971v-7.3h1.2v7.3H306.6z"/>
			<path class="st6" d="M310.4,971v-7.3h1.1v1c0.5-0.8,1.3-1.2,2.3-1.2c0.4,0,0.8,0.1,1.2,0.2c0.4,0.2,0.6,0.4,0.8,0.6
				c0.2,0.2,0.3,0.6,0.4,0.9c0,0.2,0.1,0.6,0.1,1.2v4.5h-1.2v-4.4c0-0.5,0-0.9-0.1-1.1s-0.3-0.4-0.5-0.6c-0.2-0.1-0.5-0.2-0.9-0.2
				c-0.5,0-1,0.2-1.4,0.5s-0.6,1-0.6,1.9v4H310.4L310.4,971z"/>
		</g>
	</g>
</g>
<g>
	<path class="st4" d="M527.5,1417.2h96.2v50h-96.2V1417.2z"/>
	<g>
		<g>
			<path class="st6" d="M560.4,1448.3v-10h2l2.4,7.1c0.2,0.7,0.4,1.2,0.5,1.5c0.1-0.4,0.3-0.9,0.5-1.6l2.4-7h1.8v10h-1.3v-8.4
				l-2.9,8.4h-1.2l-2.9-8.5v8.5H560.4z"/>
			<path class="st6" d="M577.4,1447.4c-0.5,0.4-0.9,0.7-1.3,0.8c-0.4,0.2-0.9,0.2-1.4,0.2c-0.8,0-1.4-0.2-1.8-0.6
				c-0.4-0.4-0.6-0.9-0.6-1.5c0-0.4,0.1-0.7,0.2-1c0.2-0.3,0.4-0.5,0.6-0.7c0.3-0.2,0.6-0.3,0.9-0.4c0.2-0.1,0.6-0.1,1.1-0.2
				c1-0.1,1.7-0.3,2.2-0.4c0-0.2,0-0.3,0-0.3c0-0.5-0.1-0.9-0.3-1.1c-0.3-0.3-0.8-0.4-1.4-0.4c-0.6,0-1,0.1-1.3,0.3
				s-0.5,0.6-0.6,1.1l-1.2-0.2c0.1-0.5,0.3-0.9,0.5-1.2c0.3-0.3,0.6-0.6,1.1-0.7c0.5-0.2,1-0.3,1.6-0.3c0.6,0,1.1,0.1,1.5,0.2
				c0.4,0.1,0.7,0.3,0.9,0.6c0.2,0.2,0.3,0.5,0.4,0.8c0,0.2,0.1,0.6,0.1,1.1v1.6c0,1.1,0,1.9,0.1,2.2c0.1,0.3,0.2,0.6,0.3,0.9h-1.3
				C577.5,1448.1,577.4,1447.8,577.4,1447.4z M577.3,1444.7c-0.4,0.2-1.1,0.3-2,0.5c-0.5,0.1-0.9,0.2-1.1,0.2s-0.4,0.2-0.5,0.4
				c-0.1,0.2-0.2,0.4-0.2,0.6c0,0.3,0.1,0.6,0.4,0.8c0.2,0.2,0.6,0.3,1.1,0.3s0.9-0.1,1.3-0.3s0.6-0.5,0.8-0.9
				c0.1-0.3,0.2-0.7,0.2-1.2V1444.7L577.3,1444.7z"/>
			<path class="st6" d="M581.1,1439.7v-1.4h1.2v1.4H581.1z M581.1,1448.3v-7.3h1.2v7.3H581.1z"/>
			<path class="st6" d="M584.9,1448.3v-7.3h1.1v1c0.5-0.8,1.3-1.2,2.3-1.2c0.4,0,0.8,0.1,1.2,0.2c0.4,0.2,0.6,0.4,0.8,0.6
				c0.2,0.2,0.3,0.6,0.4,0.9c0,0.2,0.1,0.6,0.1,1.2v4.5h-1.2v-4.4c0-0.5,0-0.9-0.1-1.1c-0.1-0.2-0.3-0.4-0.5-0.6
				c-0.2-0.1-0.5-0.2-0.9-0.2c-0.5,0-1,0.2-1.4,0.5c-0.4,0.3-0.6,1-0.6,1.9v4H584.9L584.9,1448.3z"/>
		</g>
	</g>
</g>
</svg>
